<?xml version="1.0" encoding="UTF-8"?>
<svg xmlns="http://www.w3.org/2000/svg" xmlns:xlink="http://www.w3.org/1999/xlink" width="1400px" height="362px" viewBox="0 0 1400 362" version="1.1">
<g id="surface1">
<path style=" stroke:none;fill-rule:nonzero;fill:rgb(100%,60%,0%);fill-opacity:1;" d="M 868.339844 282.804688 C 787.082031 334.117188 669.300781 361.492188 567.894531 361.492188 C 425.707031 361.492188 297.699219 316.441406 200.859375 241.507812 C 193.25 235.613281 200.066406 227.582031 209.195312 232.171875 C 313.707031 284.265625 442.929688 315.605469 576.414062 315.605469 C 666.441406 315.605469 765.472656 299.648438 856.53125 266.535156 C 870.289062 261.53125 881.792969 274.253906 868.339844 282.804688 "/>
<path style=" stroke:none;fill-rule:nonzero;fill:rgb(100%,60%,0%);fill-opacity:1;" d="M 902.121094 249.691406 C 891.773438 238.324219 833.460938 244.320312 807.289062 246.980469 C 799.316406 247.816406 798.097656 241.871094 805.28125 237.59375 C 851.722656 209.59375 927.929688 217.675781 936.816406 227.0625 C 945.703125 236.5 934.503906 301.941406 890.859375 333.179688 C 884.164062 337.976562 877.773438 335.421875 880.757812 329.058594 C 890.558594 308.097656 912.53125 261.113281 902.121094 249.691406 "/>
<path style=" stroke:none;fill-rule:nonzero;fill:rgb(13.333333%,12.156863%,12.156863%);fill-opacity:1;" d="M 809.113281 39.910156 L 809.113281 12.691406 C 809.113281 8.570312 812.765625 5.808594 817.148438 5.808594 L 959.398438 5.808594 C 963.964844 5.808594 967.617188 8.625 967.617188 12.691406 L 967.617188 36 C 967.554688 39.910156 963.71875 45.023438 956.902344 53.105469 L 883.191406 143.265625 C 910.582031 142.691406 939.496094 146.183594 964.328125 158.175781 C 969.929688 160.890625 971.449219 164.851562 971.875 168.761719 L 971.875 197.808594 C 971.875 201.769531 966.765625 206.414062 961.40625 204.011719 C 917.644531 184.355469 859.515625 182.214844 811.125 204.222656 C 806.195312 206.515625 801.019531 201.929688 801.019531 197.964844 L 801.019531 170.378906 C 801.019531 165.949219 801.082031 158.386719 806.253906 151.660156 L 891.652344 46.742188 L 817.332031 46.742188 C 812.765625 46.742188 809.113281 43.980469 809.113281 39.910156 "/>
<path style=" stroke:none;fill-rule:nonzero;fill:rgb(13.333333%,12.156863%,12.156863%);fill-opacity:1;" d="M 290.210938 209.75 L 246.933594 209.75 C 242.796875 209.488281 239.507812 206.828125 239.207031 203.441406 L 239.207031 13.160156 C 239.207031 9.355469 242.917969 6.328125 247.542969 6.328125 L 287.898438 6.328125 C 292.101562 6.484375 295.449219 9.25 295.75 12.691406 L 295.75 37.566406 L 296.542969 37.566406 C 307.074219 13.527344 326.855469 2.316406 353.515625 2.316406 C 380.601562 2.316406 397.523438 13.527344 409.699219 37.566406 C 420.167969 13.527344 443.964844 2.316406 469.46875 2.316406 C 487.609375 2.316406 507.453125 8.726562 519.566406 23.121094 C 533.261719 39.128906 530.460938 62.386719 530.460938 82.773438 L 530.398438 202.867188 C 530.398438 206.671875 526.6875 209.75 522.058594 209.75 L 478.84375 209.75 C 474.523438 209.488281 471.050781 206.515625 471.050781 202.867188 L 471.050781 102.015625 C 471.050781 93.988281 471.90625 73.960938 469.835938 66.347656 C 466.609375 53.574219 456.929688 49.976562 444.390625 49.976562 C 433.921875 49.976562 422.964844 55.972656 418.523438 65.566406 C 414.078125 75.160156 414.507812 91.222656 414.507812 102.015625 L 414.507812 202.867188 C 414.507812 206.671875 410.792969 209.75 406.167969 209.75 L 362.949219 209.75 C 358.566406 209.488281 355.160156 206.515625 355.160156 202.867188 L 355.097656 102.015625 C 355.097656 80.792969 359.175781 49.558594 328.4375 49.558594 C 297.335938 49.558594 298.550781 80.011719 298.550781 102.015625 L 298.550781 202.867188 C 298.550781 206.671875 294.839844 209.75 290.210938 209.75 "/>
<path style=" stroke:none;fill-rule:nonzero;fill:rgb(13.333333%,12.156863%,12.156863%);fill-opacity:1;" d="M 1090.082031 2.316406 C 1154.300781 2.316406 1189.054688 49.558594 1189.054688 109.628906 C 1189.054688 167.667969 1150.648438 213.710938 1090.082031 213.710938 C 1027.023438 213.710938 992.695312 166.46875 992.695312 107.597656 C 992.695312 48.359375 1027.449219 2.316406 1090.082031 2.316406 M 1090.449219 41.164062 C 1058.554688 41.164062 1056.542969 78.394531 1056.542969 101.601562 C 1056.542969 124.855469 1056.117188 174.5 1090.082031 174.5 C 1123.621094 174.5 1125.203125 134.453125 1125.203125 110.046875 C 1125.203125 93.988281 1124.414062 74.796875 1118.753906 59.570312 C 1113.882812 46.324219 1104.203125 41.164062 1090.449219 41.164062 "/>
<path style=" stroke:none;fill-rule:nonzero;fill:rgb(13.333333%,12.156863%,12.156863%);fill-opacity:1;" d="M 1272.324219 209.75 L 1229.226562 209.75 C 1224.90625 209.488281 1221.4375 206.515625 1221.4375 202.867188 L 1221.375 12.535156 C 1221.742188 9.042969 1225.332031 6.328125 1229.714844 6.328125 L 1269.828125 6.328125 C 1273.601562 6.484375 1276.707031 8.675781 1277.558594 11.648438 L 1277.558594 40.746094 L 1278.347656 40.746094 C 1290.460938 14.726562 1307.445312 2.316406 1337.332031 2.316406 C 1356.746094 2.316406 1375.675781 8.3125 1387.851562 24.738281 C 1399.171875 39.964844 1399.171875 65.566406 1399.171875 83.972656 L 1399.171875 203.753906 C 1398.683594 207.089844 1395.09375 209.75 1390.832031 209.75 L 1347.433594 209.75 C 1343.476562 209.488281 1340.191406 206.984375 1339.765625 203.753906 L 1339.765625 100.398438 C 1339.765625 79.59375 1342.566406 49.140625 1312.679688 49.140625 C 1302.148438 49.140625 1292.46875 55.191406 1287.660156 64.367188 C 1281.574219 75.996094 1280.785156 87.574219 1280.785156 100.398438 L 1280.785156 202.867188 C 1280.722656 206.671875 1276.949219 209.75 1272.324219 209.75 "/>
<path style=" stroke:none;fill-rule:nonzero;fill:rgb(13.333333%,12.156863%,12.156863%);fill-opacity:1;" d="M 695.71875 118.859375 L 695.71875 110.828125 C 664.429688 110.828125 631.378906 116.566406 631.378906 148.164062 C 631.378906 164.175781 641.058594 175.019531 657.675781 175.019531 C 669.847656 175.019531 680.742188 168.605469 687.621094 158.175781 C 696.144531 145.351562 695.71875 133.304688 695.71875 118.859375 M 739.359375 209.226562 C 736.5 211.417969 732.359375 211.574219 729.132812 210.113281 C 714.769531 199.894531 712.210938 195.148438 704.300781 185.398438 C 680.5625 206.152344 663.761719 212.355469 632.960938 212.355469 C 596.5625 212.355469 568.199219 193.113281 568.199219 154.578125 C 568.199219 124.492188 587.25 104 614.335938 93.988281 C 637.832031 85.121094 670.640625 83.558594 695.71875 81.105469 L 695.71875 76.308594 C 695.71875 67.496094 696.507812 57.066406 690.484375 49.453125 C 685.1875 42.621094 675.082031 39.808594 666.195312 39.808594 C 649.699219 39.808594 634.972656 47.054688 631.378906 62.074219 C 630.648438 65.410156 627.789062 68.695312 623.894531 68.851562 L 581.894531 64.992188 C 578.363281 64.316406 574.46875 61.863281 575.441406 57.222656 C 585.121094 13.628906 631.074219 0.488281 672.222656 0.488281 C 693.28125 0.488281 720.796875 5.285156 737.414062 18.949219 C 758.472656 35.792969 756.464844 58.265625 756.464844 82.722656 L 756.464844 140.5 C 756.464844 157.863281 764.863281 165.476562 772.777344 174.863281 C 775.578125 178.203125 776.183594 182.214844 772.65625 184.71875 C 763.828125 191.03125 748.125 202.761719 739.480469 209.332031 L 739.359375 209.226562 "/>
<path style=" stroke:none;fill-rule:nonzero;fill:rgb(13.333333%,12.156863%,12.156863%);fill-opacity:1;" d="M 128.363281 118.859375 L 128.363281 110.828125 C 97.078125 110.828125 64.027344 116.566406 64.027344 148.164062 C 64.027344 164.175781 73.703125 175.019531 90.320312 175.019531 C 102.496094 175.019531 113.390625 168.605469 120.269531 158.175781 C 128.789062 145.351562 128.363281 133.304688 128.363281 118.859375 M 172.007812 209.226562 C 169.144531 211.417969 165.007812 211.574219 161.78125 210.113281 C 147.414062 199.894531 144.859375 195.148438 136.945312 185.398438 C 113.207031 206.152344 96.410156 212.355469 65.609375 212.355469 C 29.210938 212.355469 0.84375 193.113281 0.84375 154.578125 C 0.84375 124.492188 19.898438 104 46.984375 93.988281 C 70.476562 85.121094 103.285156 83.558594 128.363281 81.105469 L 128.363281 76.308594 C 128.363281 67.496094 129.15625 57.066406 123.128906 49.453125 C 117.832031 42.621094 107.730469 39.808594 98.84375 39.808594 C 82.347656 39.808594 67.617188 47.054688 64.027344 62.074219 C 63.296875 65.410156 60.433594 68.695312 56.539062 68.851562 L 14.539062 64.992188 C 11.011719 64.316406 7.113281 61.863281 8.089844 57.222656 C 17.765625 13.628906 63.722656 0.488281 104.867188 0.488281 C 125.929688 0.488281 153.441406 5.285156 170.058594 18.949219 C 191.121094 35.792969 189.109375 58.265625 189.109375 82.722656 L 189.109375 140.5 C 189.109375 157.863281 197.511719 165.476562 205.421875 174.863281 C 208.222656 178.203125 208.832031 182.214844 205.300781 184.71875 C 196.476562 191.03125 180.773438 202.761719 172.128906 209.332031 L 172.007812 209.226562 "/>
</g>
</svg>
